Coordinates
version=1
nRows=19
nColumns=24
inDegrees=yes

Units are S.I. units (second, meters, Newtons, ...)
Angles are in degrees.

endheader
time	pelvis_tilt	pelvis_list	pelvis_rotation	pelvis_tx	pelvis_ty	pelvis_tz	hip_flexion_r	hip_adduction_r	hip_rotation_r	knee_angle_r	ankle_angle_r	subtalar_angle_r	mtp_angle_r	hip_flexion_l	hip_adduction_l	hip_rotation_l	knee_angle_l	ankle_angle_l	subtalar_angle_l	mtp_angle_l	lumbar_extension	lumbar_bending	lumbar_rotation
      1.08766667	     -2.52105867	     -1.10829863	     -0.09482491	      0.02840258	      0.98304649	      0.32053317	    -17.50742221	      3.32228424	     -2.71137999	     -3.67309687	     12.21932508	     -2.79330025	      2.46315459	     23.78695363	     -0.09543578	      0.57705558	      4.49840093	     -0.44803092	     -1.70205566	      2.56498669	    -10.68890480	      4.94960056	      9.21109371
      1.09183333	     -2.51862671	     -0.93951584	     -0.07907814	      0.03443456	      0.98206398	      0.31998302	    -17.65014930	      3.08752423	     -2.87395605	     -4.16594736	     12.44895030	     -2.51204510	      2.64077098	     23.80847867	      0.17325960	      0.78671986	      4.35021814	     -0.67906934	     -1.95634004	      2.61969440	    -10.64744395	      4.72158511	      9.17227467
      1.09600000	     -2.51653265	     -0.76624970	     -0.05341152	      0.04043965	      0.98110923	      0.31935361	    -17.73909196	      2.84034270	     -3.11469639	     -4.76465494	     12.65911156	     -2.16795442	      2.88425212	     23.84334129	      0.45453901	      1.05778140	      4.10682885	     -0.96496620	     -2.35536569	      2.69648115	    -10.63687169	      4.53738798	      9.14113095
      1.10016667	     -2.51134430	     -0.56769755	     -0.03569741	      0.04648586	      0.98020151	      0.31876040	    -17.83084527	      2.56733288	     -3.29949575	     -5.36585521	     12.85700922	     -1.88227155	      3.12408603	     23.88075379	      0.75526203	      1.30642606	      3.77764353	     -1.32946583	     -2.79427092	      2.77096562	    -10.60840919	      4.29402142	      9.09336747
      1.10433333	     -2.51464883	     -0.35207203	     -0.01371590	      0.05254324	      0.97931360	      0.31816020	    -17.88774528	      2.27633540	     -3.48533261	     -6.02090642	     13.03610667	     -1.61948769	      3.38180969	     23.93334192	      1.07304280	      1.59278748	      3.37316751	     -1.74364458	     -3.30480012	      2.85045056	    -10.56868460	      4.03160768	      9.04206520
      1.10850000	     -2.51970137	     -0.12435792	      0.00914495	      0.05860873	      0.97846359	      0.31755088	    -17.92276999	      1.97124822	     -3.65851685	     -6.71571744	     13.19051341	     -1.38773601	      3.65315809	     23.99836872	      1.40388282	      1.88156360	      2.89114392	     -2.21610177	     -3.87260532	      2.93118097	    -10.52730683	      3.75040720	      8.98439430
      1.11266667	     -2.51762291	      0.12009148	      0.07126275	      0.06468772	      0.97764249	      0.31688475	    -17.95476581	      1.65970894	     -3.86559792	     -7.43637855	     13.31884293	     -1.18131124	      4.16538042	     24.06239746	      1.76650438	      2.27279366	      2.34604923	     -2.71043615	     -4.54543442	      3.08694900	    -10.50689223	      3.44937053	      8.92752568
      1.11683333	     -2.55912685	      0.36797137	      0.06391124	      0.07075466	      0.97684233	      0.31630361	    -17.89877555	      1.32322392	     -3.95455868	     -8.22865682	     13.40563945	     -1.02030084	      4.46326971	     24.18863232	      2.10631482	      2.48756795	      1.72748697	     -3.31716585	     -5.17226891	      3.16090008	    -10.42664033	      3.15857588	      8.85535959
      1.12100000	     -2.57808479	      0.63615401	      0.09293102	      0.07683444	      0.97609028	      0.31566271	    -17.85567702	      0.97458780	     -4.09210644	     -9.04705625	     13.46362494	     -0.88023950	      4.79215885	     24.29437056	      2.48152925	      2.80172145	      1.06354949	     -3.93784908	     -5.90199486	      3.23507161	    -10.38833788	      2.82859668	      8.77999244
      1.12516667	     -2.60027984	      0.89588359	      0.13361516	      0.08289104	      0.97537105	      0.31501153	    -17.77159926	      0.63821831	     -4.23061063	     -9.93978518	     13.46222944	     -0.78662274	      5.22444522	     24.41183706	      2.85270223	      3.15235041	      0.35553761	     -4.54982183	     -6.67531914	      3.32269949	    -10.32745330	      2.50604227	      8.71026637
      1.12933333	     -2.63674280	      1.17144855	      0.16450405	      0.08896194	      0.97468234	      0.31437900	    -17.67172314	      0.28786177	     -4.29891148	    -10.82579196	     13.44349880	     -0.74918757	      5.60558847	     24.56966675	      3.23761463	      3.39615198	     -0.42895812	     -5.23009937	     -7.42832351	      3.38081930	    -10.25876157	      2.16661344	      8.62389729
      1.13350000	     -2.63012870	      1.45360194	      0.22504622	      0.09500846	      0.97408622	      0.31370816	    -17.59328186	     -0.05975686	     -4.39663302	    -11.74994118	     13.26142218	     -0.88281247	     11.23400056	     24.68093824	      3.64112623	      3.71048417	     -1.23178372	     -5.87053076	     -8.19752419	      4.15333972	    -10.26989825	      1.82270769	      8.49423708
      1.13766667	     -2.70169173	      1.73126971	      0.24937149	      0.10105861	      0.97344491	      0.31306450	    -17.38781407	     -0.41736188	     -4.45114642	    -12.75941512	     13.10773912	     -0.89150527	     11.30535144	     24.89178059	      4.02718925	      3.95574771	     -2.09141204	     -6.48107187	     -8.94186121	      4.11925662	    -10.15517824	      1.47399546	      8.46187080
      1.14183333	     -2.74602369	      2.01253710	      0.28450325	      0.10708448	      0.97288298	      0.31241665	    -17.19240886	     -0.76927790	     -4.47832461	    -13.80131171	     12.93478386	     -0.97678970	     11.41552294	     25.08247057	      4.42187668	      4.18164395	     -2.97892153	     -7.11602642	     -9.69705589	      4.07496137	    -10.08540820	      1.12364153	      8.37222732
      1.14600000	     -2.79226593	      2.29785454	      0.32476539	      0.11308864	      0.97235876	      0.31174431	    -16.96077193	     -1.12567892	     -4.50831132	    -14.90359104	     12.69773739	     -1.08566992	     11.58175884	     25.27485487	      4.82592022	      4.44273872	     -3.87993650	     -7.69534068	    -10.46868157	      4.01460355	    -10.02879522	      0.77555005	      8.28857347
      1.15016667	     -2.83022282	      2.58069442	      0.36066598	      0.11907976	      0.97189321	      0.31108676	    -16.70788376	     -1.47739348	     -4.52156934	    -16.05513877	     12.39713974	     -1.25240770	     11.78346416	     25.46508311	      5.22541024	      4.66129670	     -4.80455836	     -8.21962541	    -11.18294980	      3.94143707	     -9.96938756	      0.41805056	      8.20213915
      1.15433333	     -2.86762700	      2.86899721	      0.39238438	      0.12505528	      0.97147558	      0.31042012	    -16.42313233	     -1.83662249	     -4.52706441	    -17.25792094	     12.03654564	     -1.43992296	     12.03847040	     25.65385235	      5.63159532	      4.87666571	     -5.73964257	     -8.68421170	    -11.88754002	      3.84896383	     -9.92136610	      0.06143540	      8.12425477
      1.15850000	     -2.84853246	      3.17498150	      0.43016007	      0.13101034	      0.97116303	      0.30972657	    -16.17240292	     -2.21578171	     -4.56130621	    -18.49643271	     11.58528780	     -1.69632414	     16.68089370	     25.78001259	      6.06432505	      5.10896884	     -6.68545746	     -9.00831063	    -12.59544663	      2.30561095	     -9.95897598	     -0.31478870	      8.00049056
      1.16266667	     -2.90353286	      3.45018589	      0.45289437	      0.13696526	      0.97081936	      0.30906759	    -15.81005522	     -2.56079943	     -4.53176573	    -19.77772994	     11.03602765	     -1.95256500	     16.75600180	     25.99622235	      6.45539723	      5.25415840	     -7.65937371	     -9.30177967	    -13.16047334	      2.28398980	     -9.87754711	     -0.66296404	      7.96698088
